<svg width="24" height="24" viewBox="0 0 24 24" fill="none" xmlns="http://www.w3.org/2000/svg">
<path d="M12.7099 1.28994C12.617 1.19621 12.5064 1.12182 12.3845 1.07105C12.2627 1.02028 12.132 0.994141 11.9999 0.994141C11.8679 0.994141 11.7372 1.02028 11.6154 1.07105C11.4935 1.12182 11.3829 1.19621 11.2899 1.28994L2.28994 10.2899C2.19621 10.3829 2.12182 10.4935 2.07105 10.6154C2.02028 10.7372 1.99414 10.8679 1.99414 10.9999C1.99414 11.132 2.02028 11.2627 2.07105 11.3845C2.12182 11.5064 2.19621 11.617 2.28994 11.7099C2.38338 11.8026 2.49419 11.8759 2.61603 11.9257C2.73787 11.9755 2.86833 12.0007 2.99994 11.9999H3.99994V18.9999C3.99994 19.5304 4.21065 20.0391 4.58573 20.4142C4.9608 20.7892 5.46951 20.9999 5.99994 20.9999H17.9999C18.5304 20.9999 19.0391 20.7892 19.4142 20.4142C19.7892 20.0391 19.9999 19.5304 19.9999 18.9999V11.9999H20.9999C21.2652 11.9999 21.5195 11.8946 21.707 11.707C21.8946 11.5195 21.9999 11.2652 21.9999 10.9999C22.0007 10.8683 21.9755 10.7379 21.9257 10.616C21.8759 10.4942 21.8026 10.3834 21.7099 10.2899L12.7099 1.28994ZM5.99994 18.9999V9.40994L11.9999 3.40994L17.9999 9.40994V18.9999H5.99994Z" fill="#277FC1"/>
</svg>
