<svg width="36" height="11" viewBox="0 0 36 11" fill="none" xmlns="http://www.w3.org/2000/svg">
<path d="M6.516 4.084C6.516 4.78 6.276 5.36 5.796 5.824C5.324 6.28 4.6 6.508 3.624 6.508H2.016V10H0.924V1.636H3.624C4.568 1.636 5.284 1.864 5.772 2.32C6.268 2.776 6.516 3.364 6.516 4.084ZM3.624 5.608C4.232 5.608 4.68 5.476 4.968 5.212C5.256 4.948 5.4 4.572 5.4 4.084C5.4 3.052 4.808 2.536 3.624 2.536H2.016V5.608H3.624ZM8.96522 4.492C9.15722 4.116 9.42922 3.824 9.78122 3.616C10.1412 3.408 10.5772 3.304 11.0892 3.304V4.432H10.8012C9.57722 4.432 8.96522 5.096 8.96522 6.424V10H7.87322V3.424H8.96522V4.492ZM15.2178 10.108C14.6018 10.108 14.0418 9.968 13.5378 9.688C13.0418 9.408 12.6498 9.012 12.3618 8.5C12.0818 7.98 11.9418 7.38 11.9418 6.7C11.9418 6.028 12.0858 5.436 12.3738 4.924C12.6698 4.404 13.0698 4.008 13.5738 3.736C14.0778 3.456 14.6418 3.316 15.2658 3.316C15.8898 3.316 16.4538 3.456 16.9578 3.736C17.4618 4.008 17.8578 4.4 18.1458 4.912C18.4418 5.424 18.5898 6.02 18.5898 6.7C18.5898 7.38 18.4378 7.98 18.1338 8.5C17.8378 9.012 17.4338 9.408 16.9218 9.688C16.4098 9.968 15.8418 10.108 15.2178 10.108ZM15.2178 9.148C15.6098 9.148 15.9778 9.056 16.3218 8.872C16.6658 8.688 16.9418 8.412 17.1498 8.044C17.3658 7.676 17.4738 7.228 17.4738 6.7C17.4738 6.172 17.3698 5.724 17.1618 5.356C16.9538 4.988 16.6818 4.716 16.3458 4.54C16.0098 4.356 15.6458 4.264 15.2538 4.264C14.8538 4.264 14.4858 4.356 14.1498 4.54C13.8218 4.716 13.5578 4.988 13.3578 5.356C13.1578 5.724 13.0578 6.172 13.0578 6.7C13.0578 7.236 13.1538 7.688 13.3458 8.056C13.5458 8.424 13.8098 8.7 14.1378 8.884C14.4658 9.06 14.8258 9.148 15.2178 9.148ZM22.7016 4.324H21.3216V10H20.2296V4.324H19.3776V3.424H20.2296V2.956C20.2296 2.22 20.4176 1.684 20.7936 1.348C21.1776 1.004 21.7896 0.831999 22.6296 0.831999V1.744C22.1496 1.744 21.8096 1.84 21.6096 2.032C21.4176 2.216 21.3216 2.524 21.3216 2.956V3.424H22.7016V4.324ZM24.5388 2.356C24.3308 2.356 24.1548 2.284 24.0108 2.14C23.8668 1.996 23.7948 1.82 23.7948 1.612C23.7948 1.404 23.8668 1.228 24.0108 1.084C24.1548 0.94 24.3308 0.868 24.5388 0.868C24.7388 0.868 24.9068 0.94 25.0428 1.084C25.1868 1.228 25.2588 1.404 25.2588 1.612C25.2588 1.82 25.1868 1.996 25.0428 2.14C24.9068 2.284 24.7388 2.356 24.5388 2.356ZM25.0668 3.424V10H23.9748V3.424H25.0668ZM28.0199 1.12V10H26.9279V1.12H28.0199ZM35.881 6.46C35.881 6.668 35.869 6.888 35.845 7.12H30.589C30.629 7.768 30.849 8.276 31.249 8.644C31.657 9.004 32.149 9.184 32.725 9.184C33.197 9.184 33.589 9.076 33.901 8.86C34.221 8.636 34.445 8.34 34.573 7.972H35.749C35.573 8.604 35.221 9.12 34.693 9.52C34.165 9.912 33.509 10.108 32.725 10.108C32.101 10.108 31.541 9.968 31.045 9.688C30.557 9.408 30.173 9.012 29.893 8.5C29.613 7.98 29.473 7.38 29.473 6.7C29.473 6.02 29.609 5.424 29.881 4.912C30.153 4.4 30.533 4.008 31.021 3.736C31.517 3.456 32.085 3.316 32.725 3.316C33.349 3.316 33.901 3.452 34.381 3.724C34.861 3.996 35.229 4.372 35.485 4.852C35.749 5.324 35.881 5.86 35.881 6.46ZM34.753 6.232C34.753 5.816 34.661 5.46 34.477 5.164C34.293 4.86 34.041 4.632 33.721 4.48C33.409 4.32 33.061 4.24 32.677 4.24C32.125 4.24 31.653 4.416 31.261 4.768C30.877 5.12 30.657 5.608 30.601 6.232H34.753Z" fill="#999999"/>
</svg>
