<svg width="32" height="32" viewBox="0 0 32 32" fill="none" xmlns="http://www.w3.org/2000/svg">
<path d="M28.7239 7.96632C28.7434 8.3135 28.7435 8.66067 28.7435 9.01105C28.7435 19.6872 22.1393 32 10.0635 32V31.9936C6.4962 32 3.00305 30.7425 0 28.3714C0.518708 28.4482 1.04002 28.4866 1.56262 28.4882C4.51887 28.4914 7.39062 27.2707 9.71635 25.0228C6.90701 24.9572 4.44347 22.703 3.58286 19.412C4.56697 19.6456 5.58099 19.5976 6.5469 19.2728C3.48405 18.5113 1.28052 15.1995 1.28052 11.3533C1.28052 11.3181 1.28052 11.2845 1.28052 11.2509C2.19313 11.8765 3.21495 12.2236 4.26017 12.262C1.37542 9.8894 0.486208 5.16649 2.22823 1.47393C5.56149 6.52161 10.4795 9.59022 15.7588 9.91499C15.2297 7.10877 15.9526 4.16816 17.6582 2.19548C20.3024 -0.863526 24.4612 -0.706736 26.9468 2.54586C28.4171 2.18908 29.8264 1.52512 31.116 0.584383C30.6259 2.45467 29.6002 4.04337 28.2299 5.0529C29.5313 4.86411 30.8027 4.43534 32 3.78098C31.1186 5.40648 30.0084 6.82239 28.7239 7.96632Z" fill="#1D9BF0"/>
</svg>
